<svg width="27" height="19" viewBox="0 0 27 19" fill="none" xmlns="http://www.w3.org/2000/svg">
<path d="M26.9699 7.43133L26.2558 6.4434C26.2237 6.39985 26.1711 6.36813 26.1096 6.35516C26.048 6.34219 25.9825 6.34904 25.9273 6.3742L24.3997 7.08055L22.0404 1.92134C21.9158 1.61349 21.6709 1.34496 21.3411 1.15452C21.0113 0.964073 20.6135 0.861574 20.2053 0.861817H7.14933C6.10377 0.861817 5.17572 1.39635 4.85331 2.18622L2.60549 7.08293L1.07481 6.37658C1.01962 6.35143 0.954107 6.34458 0.892572 6.35755C0.831036 6.37051 0.778477 6.40224 0.746374 6.44579L0.0322555 7.43133C-0.034034 7.52201 0.0051371 7.63656 0.119637 7.68906L1.93958 8.52904L1.50268 9.48356C1.46652 9.55992 1.44844 9.64106 1.44844 9.72219V18.0313C1.44844 18.406 1.80399 18.709 2.2409 18.709H4.27779C4.64841 18.709 4.97082 18.4871 5.04916 18.1769L5.28118 17.2773H21.721L21.953 18.1769C22.0343 18.4871 22.3537 18.709 22.7243 18.709H24.7612C25.1981 18.709 25.5537 18.406 25.5537 18.0313V9.72219C25.5537 9.64106 25.5356 9.55992 25.4995 9.48356L25.0626 8.52904L26.8795 7.68906C26.9342 7.66404 26.9743 7.62303 26.9912 7.57483C27.0081 7.52663 27.0005 7.47511 26.9699 7.43133ZM6.02844 12.3853C5.36253 12.3853 4.82318 11.9582 4.82318 11.4308C4.82318 10.9034 5.36253 10.4763 6.02844 10.4763C6.69435 10.4763 7.2337 10.9034 7.2337 11.4308C7.2337 11.9582 6.69435 12.3853 6.02844 12.3853ZM17.7195 14.1751C17.7195 14.28 17.611 14.366 17.4784 14.366H9.5237C9.39112 14.366 9.28265 14.28 9.28265 14.1751V12.1705C9.28265 12.0656 9.39112 11.9796 9.5237 11.9796H10.729C10.8615 11.9796 10.97 12.0656 10.97 12.1705V13.0296H16.0321V12.1705C16.0321 12.0656 16.1406 11.9796 16.2732 11.9796H17.4784C17.611 11.9796 17.7195 12.0656 17.7195 12.1705V14.1751ZM20.9737 12.3853C20.3078 12.3853 19.7684 11.9582 19.7684 11.4308C19.7684 10.9034 20.3078 10.4763 20.9737 10.4763C21.6396 10.4763 22.179 10.9034 22.179 11.4308C22.179 11.9582 21.6396 12.3853 20.9737 12.3853ZM4.70265 7.5411L6.89322 2.77087L6.90828 2.73984L6.92033 2.70882C6.95348 2.63007 7.04387 2.57758 7.14933 2.57758H20.0336L22.3055 7.5411H4.70265Z" fill="white"/>
</svg>
