<svg width="26" height="24" viewBox="0 0 26 24" fill="none" xmlns="http://www.w3.org/2000/svg">
<path d="M23.812 0.678002C23.758 0.644002 23.705 0.618002 23.652 0.591002C23.0029 0.249771 22.2802 0.0726147 21.547 0.0750017H21.539C20.7369 0.0762365 19.949 0.287097 19.2535 0.686678C18.558 1.08626 17.979 1.66068 17.574 2.353L17.562 2.375C17.2341 2.9402 17.0354 3.57094 16.98 4.222L16.979 4.239H7.37898L6.30498 1.65C6.06385 1.06396 5.62171 0.583074 5.05794 0.293676C4.49418 0.00427857 3.84571 -0.0746713 3.22898 0.0710017L3.24698 0.0670017L0.000976562 0.805002L0.201977 1.691L3.44798 0.953002C3.8518 0.860968 4.27514 0.914298 4.64352 1.10361C5.0119 1.29292 5.30172 1.60609 5.46198 1.988L5.46598 2L6.39798 4.24H0.301977L10.495 14.433V21.896C8.12798 22.064 6.49498 22.848 6.49498 23.821V24.002H16.319V23.821C16.319 22.849 14.683 22.061 12.319 21.896V14.433L18.602 8.15C18.799 8.317 19.019 8.472 19.251 8.608L19.273 8.62C20.3238 9.21757 21.5685 9.37495 22.735 9.05774C23.9015 8.74053 24.895 7.97453 25.4986 6.92709C26.1021 5.87965 26.2665 4.63591 25.9559 3.46762C25.6453 2.29933 24.885 1.30145 23.841 0.692002L23.819 0.680002L23.812 0.678002ZM24.811 4.185L22.317 4.192L23.558 2.032C24.2357 2.55482 24.6842 3.32019 24.809 4.167L24.811 4.185ZM22.773 1.576L21.532 3.742L20.278 1.589C20.6788 1.42373 21.1084 1.33944 21.542 1.341C21.985 1.341 22.408 1.427 22.795 1.584L22.773 1.576ZM18.662 3.005C18.88 2.626 19.158 2.307 19.487 2.05L19.494 2.045L20.748 4.198L18.26 4.205C18.316 3.756 18.458 3.35 18.67 2.989L18.662 3.004V3.005ZM3.35898 5.506H6.91998L7.40998 6.693H4.54698L3.35898 5.506ZM18.253 6.694H17.44V6.7H8.38698L7.89698 5.513H19.431L18.253 6.694ZM20.298 7.72L21.539 5.554L22.793 7.707C22.42 7.865 21.986 7.957 21.531 7.957C21.087 7.957 20.663 7.87 20.276 7.711L20.298 7.719V7.72ZM24.409 6.298C24.1983 6.6664 23.9185 6.99066 23.585 7.253L23.578 7.258L22.324 5.105L24.812 5.099C24.7544 5.52635 24.6148 5.93856 24.401 6.313L24.41 6.297L24.409 6.298Z" fill="white"/>
</svg>
