<svg width="28" height="22" viewBox="0 0 28 22" fill="none" xmlns="http://www.w3.org/2000/svg">
<path d="M24.3426 8.33625L20.0401 2.1925L22.0888 0.758751L26.3901 6.9025L24.3426 8.33625ZM21.9876 11.5113L19.8376 8.4375L9.59759 15.6075L11.7476 18.6788L9.70009 20.1138L3.96509 11.9213L6.01259 10.4875L8.16259 13.56L18.4026 6.39L16.2526 3.3175L18.3001 1.88375L24.0351 10.075L21.9876 11.51V11.5113ZM24.9563 4.85375L27.0038 3.42L25.5701 1.3725L23.5226 2.80625L24.9563 4.85375ZM7.96009 19.8075L3.65759 13.6637L1.61009 15.0975L5.91134 21.2413L7.96009 19.8075ZM4.47759 19.1938L2.43009 20.6275L0.996338 18.58L3.04384 17.1462L4.47759 19.1938Z" fill="white"/>
</svg>
