<svg width="20" height="6" viewBox="0 0 20 6" fill="none" xmlns="http://www.w3.org/2000/svg">
<path d="M2.78125 5.0625C2.46526 5.0625 2.15236 5.00026 1.86042 4.87934C1.56848 4.75841 1.30322 4.58117 1.07977 4.35773C0.856333 4.13428 0.67909 3.86902 0.558165 3.57708C0.43724 3.28514 0.375 2.97224 0.375 2.65625C0.375 2.34026 0.43724 2.02736 0.558165 1.73542C0.67909 1.44348 0.856333 1.17821 1.07977 0.954774C1.30322 0.731333 1.56848 0.55409 1.86042 0.433166C2.15236 0.31224 2.46526 0.25 2.78125 0.25C3.41943 0.25 4.03147 0.503514 4.48273 0.954774C4.93398 1.40603 5.1875 2.01807 5.1875 2.65625C5.1875 3.29443 4.93398 3.90647 4.48273 4.35773C4.03147 4.80898 3.41943 5.0625 2.78125 5.0625ZM2.78125 3.6875C3.05475 3.6875 3.31706 3.57885 3.51045 3.38545C3.70385 3.19206 3.8125 2.92975 3.8125 2.65625C3.8125 2.38275 3.70385 2.12044 3.51045 1.92705C3.31706 1.73365 3.05475 1.625 2.78125 1.625C2.50775 1.625 2.24544 1.73365 2.05205 1.92705C1.85865 2.12044 1.75 2.38275 1.75 2.65625C1.75 2.92975 1.85865 3.19206 2.05205 3.38545C2.24544 3.57885 2.50775 3.6875 2.78125 3.6875ZM10 5.0625C10.316 5.0625 10.6289 5.00026 10.9208 4.87934C11.2128 4.75841 11.478 4.58117 11.7015 4.35773C11.9249 4.13428 12.1022 3.86902 12.2231 3.57708C12.344 3.28514 12.4062 2.97224 12.4062 2.65625C12.4062 2.34026 12.344 2.02736 12.2231 1.73542C12.1022 1.44348 11.9249 1.17821 11.7015 0.954774C11.478 0.731333 11.2128 0.55409 10.9208 0.433166C10.6289 0.31224 10.316 0.25 10 0.25C9.36182 0.25 8.74978 0.503514 8.29852 0.954774C7.84727 1.40603 7.59375 2.01807 7.59375 2.65625C7.59375 3.29443 7.84727 3.90647 8.29852 4.35773C8.74978 4.80898 9.36182 5.0625 10 5.0625ZM10 3.6875C9.7265 3.6875 9.46419 3.57885 9.2708 3.38545C9.0774 3.19206 8.96875 2.92975 8.96875 2.65625C8.96875 2.38275 9.0774 2.12044 9.2708 1.92705C9.46419 1.73365 9.7265 1.625 10 1.625C10.2735 1.625 10.5358 1.73365 10.7292 1.92705C10.9226 2.12044 11.0312 2.38275 11.0312 2.65625C11.0312 2.92975 10.9226 3.19206 10.7292 3.38545C10.5358 3.57885 10.2735 3.6875 10 3.6875ZM17.2188 5.0625C17.5347 5.0625 17.8476 5.00026 18.1396 4.87934C18.4315 4.75841 18.6968 4.58117 18.9202 4.35773C19.1437 4.13428 19.3209 3.86902 19.4418 3.57708C19.5628 3.28514 19.625 2.97224 19.625 2.65625C19.625 2.34026 19.5628 2.02736 19.4418 1.73542C19.3209 1.44348 19.1437 1.17821 18.9202 0.954774C18.6968 0.731333 18.4315 0.55409 18.1396 0.433166C17.8476 0.31224 17.5347 0.25 17.2188 0.25C16.5806 0.25 15.9685 0.503514 15.5173 0.954774C15.066 1.40603 14.8125 2.01807 14.8125 2.65625C14.8125 3.29443 15.066 3.90647 15.5173 4.35773C15.9685 4.80898 16.5806 5.0625 17.2188 5.0625ZM17.2188 3.6875C16.9452 3.6875 16.6829 3.57885 16.4895 3.38545C16.2962 3.19206 16.1875 2.92975 16.1875 2.65625C16.1875 2.38275 16.2962 2.12044 16.4895 1.92705C16.6829 1.73365 16.9452 1.625 17.2188 1.625C17.4923 1.625 17.7546 1.73365 17.948 1.92705C18.1413 2.12044 18.25 2.38275 18.25 2.65625C18.25 2.92975 18.1413 3.19206 17.948 3.38545C17.7546 3.57885 17.4923 3.6875 17.2188 3.6875Z" fill="white"/>
</svg>
