<svg width="22" height="22" viewBox="0 0 22 22" fill="none" xmlns="http://www.w3.org/2000/svg">
<path d="M1.375 16.5001C1.37618 17.0773 1.49928 17.6478 1.73623 18.1742C1.97318 18.7006 2.31865 19.171 2.75 19.5547V21.3125C2.75 21.4948 2.82243 21.6697 2.95136 21.7986C3.0803 21.9276 3.25516 22 3.4375 22H4.8125C4.99484 22 5.1697 21.9276 5.29864 21.7986C5.42757 21.6697 5.5 21.4948 5.5 21.3125V20.625H16.5V21.3125C16.5 21.4948 16.5724 21.6697 16.7014 21.7986C16.8303 21.9276 17.0052 22 17.1875 22H18.5625C18.7448 22 18.9197 21.9276 19.0486 21.7986C19.1776 21.6697 19.25 21.4948 19.25 21.3125V19.5547C19.6814 19.171 20.0268 18.7006 20.2638 18.1742C20.5007 17.6478 20.6238 17.0773 20.625 16.5001V14.4376H1.375V16.5001ZM21.3125 11.0001H3.4375V2.9758C3.43789 2.79536 3.49171 2.61908 3.59217 2.46919C3.69263 2.31931 3.83523 2.20253 4.00198 2.13358C4.16873 2.06464 4.35216 2.04663 4.52913 2.08181C4.70611 2.11699 4.86871 2.2038 4.99641 2.33128L5.82441 3.15884C5.26023 4.44274 5.49742 5.6987 6.1948 6.5847L6.1875 6.59201C6.05906 6.72087 5.98694 6.89539 5.98694 7.07734C5.98694 7.25928 6.05906 7.4338 6.1875 7.56266L6.67348 8.04863C6.73732 8.11249 6.81312 8.16314 6.89654 8.1977C6.97996 8.23226 7.06937 8.25005 7.15967 8.25005C7.24997 8.25005 7.33938 8.23226 7.4228 8.1977C7.50622 8.16314 7.58202 8.11249 7.64586 8.04863L12.1735 3.52107C12.2373 3.45723 12.288 3.38143 12.3225 3.29801C12.3571 3.21459 12.3749 3.12518 12.3749 3.03488C12.3749 2.94458 12.3571 2.85517 12.3225 2.77175C12.288 2.68833 12.2373 2.61254 12.1735 2.54869L11.6875 2.06272C11.5586 1.93389 11.3838 1.86152 11.2015 1.86152C11.0193 1.86152 10.8445 1.93389 10.7155 2.06272L10.7082 2.07003C9.82223 1.37265 8.56711 1.13547 7.28234 1.69964L6.45477 0.871643C6.03862 0.455455 5.5084 0.172022 4.93116 0.0571892C4.35392 -0.0576435 3.75559 0.00128279 3.21185 0.226516C2.6681 0.451748 2.20336 0.83317 1.8764 1.32254C1.54944 1.81191 1.37495 2.38726 1.375 2.9758V11.0001H0.6875C0.505164 11.0001 0.330295 11.0726 0.201364 11.2015C0.0724328 11.3304 0 11.5053 0 11.6876L0 12.3751C0 12.5574 0.0724328 12.7323 0.201364 12.8612C0.330295 12.9902 0.505164 13.0626 0.6875 13.0626H21.3125C21.4948 13.0626 21.6697 12.9902 21.7986 12.8612C21.9276 12.7323 22 12.5574 22 12.3751V11.6876C22 11.5053 21.9276 11.3304 21.7986 11.2015C21.6697 11.0726 21.4948 11.0001 21.3125 11.0001Z" fill="white"/>
</svg>
