<svg width="23" height="17" viewBox="0 0 23 17" fill="none" xmlns="http://www.w3.org/2000/svg">
<path d="M16.6514 11.1489C15.2793 9.95508 13.4873 9.23242 11.5244 9.23242C9.56151 9.23242 7.76952 9.95508 6.39501 11.1514C6.35705 11.1856 6.33381 11.2332 6.33017 11.2842C6.32653 11.3351 6.34277 11.3855 6.37547 11.4248L7.25438 12.4722C7.32518 12.5552 7.44969 12.5649 7.5327 12.4941C8.59715 11.5566 9.99364 10.9902 11.5244 10.9902C13.0552 10.9902 14.4516 11.5566 15.5161 12.4917C15.5991 12.5625 15.7236 12.5527 15.7944 12.4697L16.6733 11.4224C16.7417 11.3418 16.7319 11.2197 16.6514 11.1489ZM19.5176 7.72852C17.352 5.92432 14.5664 4.83789 11.5244 4.83789C8.48241 4.83789 5.69676 5.92432 3.5288 7.72852C3.48913 7.76197 3.46431 7.80974 3.45974 7.86142C3.45516 7.91311 3.47121 7.9645 3.50438 8.0044L4.38329 9.05176C4.45165 9.13476 4.57616 9.14453 4.65672 9.07617C6.51952 7.52832 8.91454 6.5957 11.5244 6.5957C14.1343 6.5957 16.5293 7.52832 18.3896 9.07617C18.4726 9.14453 18.5947 9.13476 18.6631 9.05176L19.542 8.0044C19.6103 7.92139 19.6006 7.79688 19.5176 7.72852ZM22.3667 4.33496C19.4028 1.90332 15.6089 0.443359 11.4756 0.443359C7.36913 0.443359 3.5996 1.88379 0.643053 4.28613C0.622741 4.30245 0.605899 4.32267 0.59352 4.3456C0.58114 4.36853 0.573474 4.3937 0.570971 4.41963C0.568469 4.44557 0.571181 4.47174 0.578948 4.49661C0.586715 4.52149 0.59938 4.54455 0.616198 4.56445L1.4951 5.61182C1.56346 5.69238 1.68553 5.70459 1.7661 5.63867C4.41991 3.48779 7.79637 2.20117 11.4756 2.20117C15.1816 2.20117 18.5801 3.50732 21.2412 5.68506C21.3242 5.75342 21.4463 5.74121 21.5146 5.6582L22.3935 4.61084C22.4643 4.52783 22.4521 4.40332 22.3667 4.33496ZM9.93749 14.9941C9.93749 15.4085 10.1021 15.806 10.3951 16.099C10.6882 16.392 11.0856 16.5566 11.5 16.5566C11.9144 16.5566 12.3118 16.392 12.6048 16.099C12.8979 15.806 13.0625 15.4085 13.0625 14.9941C13.0625 14.5797 12.8979 14.1823 12.6048 13.8893C12.3118 13.5963 11.9144 13.4316 11.5 13.4316C11.0856 13.4316 10.6882 13.5963 10.3951 13.8893C10.1021 14.1823 9.93749 14.5797 9.93749 14.9941Z" fill="white"/>
</svg>
