<svg width="20" height="16" viewBox="0 0 20 16" fill="none" xmlns="http://www.w3.org/2000/svg">
<path d="M13 4V16H7V4H13ZM15 4C16.3261 4 17.5979 4.52678 18.5355 5.46447C19.4732 6.40215 20 7.67392 20 9V11C20 12.3261 19.4732 13.5979 18.5355 14.5355C17.5979 15.4732 16.3261 16 15 16V4ZM5 4V16C3.67392 16 2.40215 15.4732 1.46447 14.5355C0.526784 13.5979 0 12.3261 0 11L0 9C0 7.67392 0.526784 6.40215 1.46447 5.46447C2.40215 4.52678 3.67392 4 5 4ZM5.1 4C5.33148 2.87136 5.94549 1.85723 6.83827 1.12898C7.73105 0.400721 8.84787 0.00299072 10 0.00299072C11.1521 0.00299072 12.2689 0.400721 13.1617 1.12898C14.0545 1.85723 14.6685 2.87136 14.9 4H12.83C12.6234 3.41447 12.2403 2.90743 11.7334 2.54879C11.2265 2.19015 10.6209 1.99755 10 1.99755C9.37909 1.99755 8.77346 2.19015 8.2666 2.54879C7.75974 2.90743 7.3766 3.41447 7.17 4H5.1Z" fill="#979797"/>
</svg>
