<svg width="12" height="14" viewBox="0 0 12 14" fill="none" xmlns="http://www.w3.org/2000/svg">
<path d="M11.6667 2.01902C11.8508 2.01902 12 1.84179 12 1.62296V0.830844C12 0.612021 11.8508 0.434784 11.6667 0.434784H0.333333C0.149167 0.434784 0 0.612021 0 0.830844V1.62296C0 1.84179 0.149167 2.01902 0.333333 2.01902H0.66625V11.5245H0.333333C0.149167 11.5245 0 11.7017 0 11.9205V12.7126C0 12.9315 0.149167 13.1087 0.333333 13.1087H5.33333V11.1284C5.33333 10.9106 5.48333 10.7323 5.66667 10.7323H6.33333C6.51667 10.7323 6.66667 10.9106 6.66667 11.1284V13.1087H11.6667C11.8508 13.1087 12 12.9315 12 12.7126V11.9205C12 11.7017 11.8508 11.5245 11.6667 11.5245H11.3333V2.01902H11.6667ZM5.33333 3.12799C5.33333 2.96957 5.46667 2.81114 5.6 2.81114H6.4C6.53333 2.81114 6.66667 2.96957 6.66667 3.12799V4.07853C6.66667 4.23696 6.53333 4.39538 6.4 4.39538H5.6C5.46667 4.39538 5.33333 4.23696 5.33333 4.07853V3.12799ZM5.33333 5.50435C5.33333 5.34593 5.46667 5.1875 5.6 5.1875H6.4C6.53333 5.1875 6.66667 5.34593 6.66667 5.50435V6.45489C6.66667 6.61332 6.53333 6.77174 6.4 6.77174H5.6C5.46667 6.77174 5.33333 6.61332 5.33333 6.45489V5.50435ZM2.66667 3.12799C2.66667 2.96957 2.8 2.81114 2.93333 2.81114H3.73333C3.86667 2.81114 4 2.96957 4 3.12799V4.07853C4 4.23696 3.86667 4.39538 3.73333 4.39538H2.93333C2.8 4.39538 2.66667 4.23696 2.66667 4.07853V3.12799ZM3.73333 6.77174H2.93333C2.8 6.77174 2.66667 6.61332 2.66667 6.45489V5.50435C2.66667 5.34593 2.8 5.1875 2.93333 5.1875H3.73333C3.86667 5.1875 4 5.34593 4 5.50435V6.45489C4 6.61332 3.86667 6.77174 3.73333 6.77174ZM4 9.94022C4 8.62778 4.89542 7.56386 6 7.56386C7.10458 7.56386 8 8.62778 8 9.94022H4ZM9.33333 6.45489C9.33333 6.61332 9.2 6.77174 9.06667 6.77174H8.26667C8.13333 6.77174 8 6.61332 8 6.45489V5.50435C8 5.34593 8.13333 5.1875 8.26667 5.1875H9.06667C9.2 5.1875 9.33333 5.34593 9.33333 5.50435V6.45489ZM9.33333 4.07853C9.33333 4.23696 9.2 4.39538 9.06667 4.39538H8.26667C8.13333 4.39538 8 4.23696 8 4.07853V3.12799C8 2.96957 8.13333 2.81114 8.26667 2.81114H9.06667C9.2 2.81114 9.33333 2.96957 9.33333 3.12799V4.07853Z" fill="white"/>
</svg>
