<svg width="12" height="14" viewBox="0 0 12 14" fill="none" xmlns="http://www.w3.org/2000/svg">
<path d="M11.6667 2.01904C11.8508 2.01904 12 1.8418 12 1.62298V0.830859C12 0.612036 11.8508 0.434799 11.6667 0.434799H0.333333C0.149167 0.434799 0 0.612036 0 0.830859V1.62298C0 1.8418 0.149167 2.01904 0.333333 2.01904H0.66625V11.5245H0.333333C0.149167 11.5245 0 11.7017 0 11.9205V12.7127C0 12.9315 0.149167 13.1087 0.333333 13.1087H5.33333V11.1284C5.33333 10.9106 5.48333 10.7324 5.66667 10.7324H6.33333C6.51667 10.7324 6.66667 10.9106 6.66667 11.1284V13.1087H11.6667C11.8508 13.1087 12 12.9315 12 12.7127V11.9205C12 11.7017 11.8508 11.5245 11.6667 11.5245H11.3333V2.01904H11.6667ZM5.33333 3.12801C5.33333 2.96958 5.46667 2.81116 5.6 2.81116H6.4C6.53333 2.81116 6.66667 2.96958 6.66667 3.12801V4.07855C6.66667 4.23697 6.53333 4.3954 6.4 4.3954H5.6C5.46667 4.3954 5.33333 4.23697 5.33333 4.07855V3.12801ZM5.33333 5.50436C5.33333 5.34594 5.46667 5.18752 5.6 5.18752H6.4C6.53333 5.18752 6.66667 5.34594 6.66667 5.50436V6.45491C6.66667 6.61333 6.53333 6.77176 6.4 6.77176H5.6C5.46667 6.77176 5.33333 6.61333 5.33333 6.45491V5.50436ZM2.66667 3.12801C2.66667 2.96958 2.8 2.81116 2.93333 2.81116H3.73333C3.86667 2.81116 4 2.96958 4 3.12801V4.07855C4 4.23697 3.86667 4.3954 3.73333 4.3954H2.93333C2.8 4.3954 2.66667 4.23697 2.66667 4.07855V3.12801ZM3.73333 6.77176H2.93333C2.8 6.77176 2.66667 6.61333 2.66667 6.45491V5.50436C2.66667 5.34594 2.8 5.18752 2.93333 5.18752H3.73333C3.86667 5.18752 4 5.34594 4 5.50436V6.45491C4 6.61333 3.86667 6.77176 3.73333 6.77176ZM4 9.94023C4 8.62779 4.89542 7.56388 6 7.56388C7.10458 7.56388 8 8.62779 8 9.94023H4ZM9.33333 6.45491C9.33333 6.61333 9.2 6.77176 9.06667 6.77176H8.26667C8.13333 6.77176 8 6.61333 8 6.45491V5.50436C8 5.34594 8.13333 5.18752 8.26667 5.18752H9.06667C9.2 5.18752 9.33333 5.34594 9.33333 5.50436V6.45491ZM9.33333 4.07855C9.33333 4.23697 9.2 4.3954 9.06667 4.3954H8.26667C8.13333 4.3954 8 4.23697 8 4.07855V3.12801C8 2.96958 8.13333 2.81116 8.26667 2.81116H9.06667C9.2 2.81116 9.33333 2.96958 9.33333 3.12801V4.07855Z" fill="black"/>
</svg>
