<svg width="18" height="16" viewBox="0 0 18 16" fill="none" xmlns="http://www.w3.org/2000/svg">
<path d="M17.4219 0.4375H0.578125C0.483594 0.4375 0.40625 0.514844 0.40625 0.609375V1.98438C0.40625 2.07891 0.483594 2.15625 0.578125 2.15625H17.4219C17.5164 2.15625 17.5938 2.07891 17.5938 1.98438V0.609375C17.5938 0.514844 17.5164 0.4375 17.4219 0.4375ZM17.4219 13.8438H0.578125C0.483594 13.8438 0.40625 13.9211 0.40625 14.0156V15.3906C0.40625 15.4852 0.483594 15.5625 0.578125 15.5625H17.4219C17.5164 15.5625 17.5938 15.4852 17.5938 15.3906V14.0156C17.5938 13.9211 17.5164 13.8438 17.4219 13.8438ZM17.4219 7.14062H0.578125C0.483594 7.14062 0.40625 7.21797 0.40625 7.3125V8.6875C0.40625 8.78203 0.483594 8.85938 0.578125 8.85938H17.4219C17.5164 8.85938 17.5938 8.78203 17.5938 8.6875V7.3125C17.5938 7.21797 17.5164 7.14062 17.4219 7.14062Z" fill="white"/>
</svg>
