<svg width="19" height="22" viewBox="0 0 19 22" fill="none" xmlns="http://www.w3.org/2000/svg">
<path d="M16.6875 11.9212V10.0625H15.25V12.2188C15.25 12.4094 15.3258 12.5921 15.4606 12.7269L17.4062 14.6726V15.8125H1.59375V14.6726L3.53941 12.7269C3.67421 12.5921 3.74996 12.4094 3.75 12.2188V9.34375C3.748 8.33376 4.01256 7.34112 4.51697 6.4661C5.02138 5.59108 5.74777 4.86467 6.62277 4.36023C7.49777 3.85579 8.4904 3.59119 9.50039 3.59316C10.5104 3.59513 11.502 3.86359 12.375 4.37144V2.76503C11.6908 2.46209 10.9631 2.26901 10.2188 2.19291V0.71875H8.78125V2.19219C7.00922 2.37255 5.36702 3.20355 4.17217 4.52452C2.97733 5.84548 2.31473 7.56257 2.3125 9.34375V11.9212L0.366844 13.8668C0.232043 14.0016 0.156291 14.1844 0.15625 14.375V16.5312C0.15625 16.7219 0.231975 16.9047 0.366767 17.0395C0.501559 17.1743 0.684376 17.25 0.875 17.25H5.90625V17.9688C5.90625 18.9219 6.28488 19.836 6.95884 20.5099C7.63279 21.1839 8.54688 21.5625 9.5 21.5625C10.4531 21.5625 11.3672 21.1839 12.0412 20.5099C12.7151 19.836 13.0938 18.9219 13.0938 17.9688V17.25H18.125C18.3156 17.25 18.4984 17.1743 18.6332 17.0395C18.768 16.9047 18.8438 16.7219 18.8438 16.5312V14.375C18.8437 14.1844 18.768 14.0016 18.6332 13.8668L16.6875 11.9212ZM11.6562 17.9688C11.6562 18.5406 11.4291 19.0891 11.0247 19.4935C10.6203 19.8978 10.0719 20.125 9.5 20.125C8.92813 20.125 8.37968 19.8978 7.9753 19.4935C7.57093 19.0891 7.34375 18.5406 7.34375 17.9688V17.25H11.6562V17.9688Z" fill="white"/>
</svg>
