<svg width="20" height="20" viewBox="0 0 20 20" fill="none" xmlns="http://www.w3.org/2000/svg">
<path fill-rule="evenodd" clip-rule="evenodd" d="M10 19C14.9705 19 19 14.9705 19 9.99998C19 5.02949 14.9705 0.999998 10 0.999998C5.0295 0.999998 1 5.02949 1 9.99998C1 14.9705 5.0295 19 10 19ZM10 20C15.523 20 20 15.523 20 9.99998C20 4.47699 15.523 0 10 0C4.477 0 0 4.47699 0 9.99998C0 15.523 4.477 20 10 20Z" fill="black" fill-opacity="0.36"/>
<path d="M4 15.815C4 15.2985 4.386 14.862 4.9 14.805C8.7575 14.378 11.26 14.4165 15.109 14.8145C15.3012 14.8347 15.4834 14.9104 15.6333 15.0324C15.7831 15.1544 15.8942 15.3174 15.953 15.5015C16.0117 15.6857 16.0156 15.8829 15.9641 16.0692C15.9126 16.2554 15.808 16.4227 15.663 16.5505C11.1205 20.51 8.5245 20.4555 4.32 16.5545C4.115 16.3645 4 16.0945 4 15.8155V15.815Z" fill="black" fill-opacity="0.36"/>
<path fill-rule="evenodd" clip-rule="evenodd" d="M15.0575 15.3115C11.239 14.9165 8.7725 14.8795 4.9545 15.302C4.82882 15.3166 4.71296 15.3771 4.6291 15.4718C4.54524 15.5666 4.49928 15.6889 4.5 15.8155C4.5 15.9585 4.5595 16.094 4.66 16.188C6.744 18.121 8.323 18.9945 9.8665 19C11.4155 19.0055 13.0795 18.139 15.3345 16.174C15.4061 16.1102 15.4577 16.027 15.4829 15.9345C15.5082 15.8419 15.506 15.7441 15.4767 15.6528C15.4473 15.5615 15.3921 15.4807 15.3177 15.4201C15.2433 15.3596 15.1529 15.3221 15.0575 15.312V15.3115ZM4.845 14.308C8.743 13.8765 11.282 13.9155 15.161 14.317C15.4501 14.3471 15.7242 14.461 15.9497 14.6445C16.1751 14.8281 16.3422 15.0734 16.4304 15.3504C16.5185 15.6274 16.524 15.9242 16.4462 16.2043C16.3683 16.4844 16.2105 16.7357 15.992 16.9275C13.7045 18.9215 11.7995 20.0075 9.8635 20C7.922 19.993 6.101 18.8885 3.9805 16.921C3.82868 16.7795 3.70765 16.6083 3.62497 16.418C3.5423 16.2277 3.49976 16.0224 3.5 15.815C3.49927 15.4422 3.6361 15.0822 3.88428 14.8041C4.13247 14.5259 4.47455 14.3491 4.845 14.3075V14.308Z" fill="black" fill-opacity="0.36"/>
<path d="M14 7.99998C14 9.06084 13.5786 10.0783 12.8284 10.8284C12.0783 11.5785 11.0609 12 10 12C8.93913 12 7.92172 11.5785 7.17157 10.8284C6.42143 10.0783 6 9.06084 6 7.99998C6 6.93911 6.42143 5.9217 7.17157 5.17155C7.92172 4.42141 8.93913 3.99998 10 3.99998C11.0609 3.99998 12.0783 4.42141 12.8284 5.17155C13.5786 5.9217 14 6.93911 14 7.99998Z" fill="black" fill-opacity="0.36"/>
<path fill-rule="evenodd" clip-rule="evenodd" d="M10 11C10.7956 11 11.5587 10.6839 12.1213 10.1213C12.6839 9.55868 13 8.79562 13 7.99998C13 7.20433 12.6839 6.44127 12.1213 5.87866C11.5587 5.31605 10.7956 4.99998 10 4.99998C9.20435 4.99998 8.44129 5.31605 7.87868 5.87866C7.31607 6.44127 7 7.20433 7 7.99998C7 8.79562 7.31607 9.55868 7.87868 10.1213C8.44129 10.6839 9.20435 11 10 11ZM10 12C11.0609 12 12.0783 11.5785 12.8284 10.8284C13.5786 10.0783 14 9.06084 14 7.99998C14 6.93911 13.5786 5.9217 12.8284 5.17155C12.0783 4.42141 11.0609 3.99998 10 3.99998C8.93913 3.99998 7.92172 4.42141 7.17157 5.17155C6.42143 5.9217 6 6.93911 6 7.99998C6 9.06084 6.42143 10.0783 7.17157 10.8284C7.92172 11.5785 8.93913 12 10 12Z" fill="black" fill-opacity="0.36"/>
</svg>
