<svg width="12" height="12" viewBox="0 0 12 12" fill="none" xmlns="http://www.w3.org/2000/svg">
<path d="M6.75 6C7.14782 6 7.52936 6.15804 7.81066 6.43934C8.09196 6.72064 8.25 7.10218 8.25 7.5V8.625C8.25 10.1655 6.684 11.25 4.125 11.25C1.566 11.25 0 10.1655 0 8.625V7.5C0 7.10218 0.158035 6.72064 0.43934 6.43934C0.720644 6.15804 1.10218 6 1.5 6H6.75ZM10.5 6C10.8978 6 11.2794 6.15804 11.5607 6.43934C11.842 6.72064 12 7.10218 12 7.5V7.875C12 9.44175 10.824 10.5 8.625 10.5C8.51925 10.5 8.415 10.4978 8.3145 10.4925C8.7239 10.0218 8.96344 9.4273 8.99475 8.80425L9 8.625V7.5C9 6.981 8.8245 6.5025 8.529 6.12225L8.42625 6H10.5ZM4.125 0C4.46972 -5.13673e-09 4.81106 0.0678976 5.12954 0.199816C5.44802 0.331735 5.7374 0.525091 5.98116 0.768845C6.22491 1.0126 6.41827 1.30198 6.55018 1.62046C6.6821 1.93894 6.75 2.28028 6.75 2.625C6.75 2.96972 6.6821 3.31106 6.55018 3.62954C6.41827 3.94802 6.22491 4.2374 5.98116 4.48116C5.7374 4.72491 5.44802 4.91827 5.12954 5.05018C4.81106 5.1821 4.46972 5.25 4.125 5.25C3.42881 5.25 2.76113 4.97344 2.26884 4.48116C1.77656 3.98887 1.5 3.32119 1.5 2.625C1.5 1.92881 1.77656 1.26113 2.26884 0.768845C2.76113 0.276562 3.42881 1.03741e-08 4.125 0ZM9.375 1.5C9.87228 1.5 10.3492 1.69754 10.7008 2.04917C11.0525 2.40081 11.25 2.87772 11.25 3.375C11.25 3.87228 11.0525 4.34919 10.7008 4.70083C10.3492 5.05246 9.87228 5.25 9.375 5.25C8.87772 5.25 8.40081 5.05246 8.04918 4.70083C7.69754 4.34919 7.5 3.87228 7.5 3.375C7.5 2.87772 7.69754 2.40081 8.04918 2.04917C8.40081 1.69754 8.87772 1.5 9.375 1.5Z" fill="white"/>
</svg>
