<svg width="6" height="6" viewBox="0 0 6 6" fill="none" xmlns="http://www.w3.org/2000/svg">
<path d="M5.80607 2.11277L4.00739 1.83903L3.20333 0.132051C3.18137 0.0853147 3.14524 0.0474807 3.10061 0.0244836C2.98868 -0.0333802 2.85266 0.0148396 2.7967 0.132051L1.99264 1.83903L0.193955 2.11277C0.144365 2.12019 0.0990263 2.14467 0.0643136 2.18176C0.0223479 2.22693 -0.000777074 2.2877 1.99392e-05 2.35071C0.000816952 2.41372 0.0254708 2.47383 0.0685642 2.51782L1.36994 3.84646L1.06248 5.72258C1.05527 5.76622 1.05988 5.8111 1.07579 5.85214C1.0917 5.89318 1.11828 5.92873 1.1525 5.95476C1.18672 5.98078 1.22722 5.99625 1.26941 5.9994C1.3116 6.00255 1.35379 5.99326 1.39119 5.97258L3.00001 5.08682L4.60884 5.97258C4.65276 5.99706 4.70377 6.00522 4.75265 5.99632C4.87592 5.97406 4.9588 5.85166 4.93755 5.72258L4.63009 3.84646L5.93146 2.51782C5.96689 2.48147 5.99026 2.43399 5.99735 2.38206C6.01648 2.25224 5.93005 2.13206 5.80607 2.11277Z" fill="#FFA132"/>
</svg>
