<svg width="9" height="15" viewBox="0 0 9 15" fill="none" xmlns="http://www.w3.org/2000/svg">
<path d="M4.49997 0.440197C2.08122 0.440197 0.124969 2.69414 0.124969 5.48096C0.124969 9.26153 4.49997 14.8424 4.49997 14.8424C4.49997 14.8424 8.87497 9.26153 8.87497 5.48096C8.87497 2.69414 6.91872 0.440197 4.49997 0.440197ZM4.49997 7.28123C4.08557 7.28123 3.68814 7.09156 3.39512 6.75394C3.10209 6.41633 2.93747 5.95842 2.93747 5.48096C2.93747 5.0035 3.10209 4.54559 3.39512 4.20797C3.68814 3.87036 4.08557 3.68069 4.49997 3.68069C4.91437 3.68069 5.3118 3.87036 5.60482 4.20797C5.89785 4.54559 6.06247 5.0035 6.06247 5.48096C6.06247 5.95842 5.89785 6.41633 5.60482 6.75394C5.3118 7.09156 4.91437 7.28123 4.49997 7.28123Z" fill="black"/>
</svg>
