<svg width="13" height="17" viewBox="0 0 13 17" fill="none" xmlns="http://www.w3.org/2000/svg">
<path d="M6.49992 0.583252C3.43617 0.583252 0.958252 3.06117 0.958252 6.12492C0.958252 10.2812 6.49992 16.4166 6.49992 16.4166C6.49992 16.4166 12.0416 10.2812 12.0416 6.12492C12.0416 3.06117 9.56367 0.583252 6.49992 0.583252ZM6.49992 8.10409C5.97501 8.10409 5.4716 7.89557 5.10044 7.5244C4.72927 7.15324 4.52075 6.64983 4.52075 6.12492C4.52075 5.60001 4.72927 5.0966 5.10044 4.72544C5.4716 4.35427 5.97501 4.14575 6.49992 4.14575C7.02483 4.14575 7.52824 4.35427 7.8994 4.72544C8.27057 5.0966 8.47909 5.60001 8.47909 6.12492C8.47909 6.64983 8.27057 7.15324 7.8994 7.5244C7.52824 7.89557 7.02483 8.10409 6.49992 8.10409Z" fill="white"/>
</svg>
